<svg t="1636993789418" class="icon" viewBox="0 0 1024 1024" version="1.1" xmlns="http://www.w3.org/2000/svg" p-id="4641" width="200" height="200"><path d="M259.84 800c-9.06666667 0-17.70666667-3.62666667-24.10666667-10.02666667l-147.2-147.2c-13.33333333-13.33333333-13.33333333-34.98666667 0-48.32l425.17333334-425.17333333c9.49333333-9.49333333 35.73333333-31.46666667 75.94666666-31.46666667 28.69333333 0 55.68 11.2 75.94666667 31.46666667l43.62666667 43.62666667c41.81333333 41.81333333 41.81333333 109.97333333 0 151.89333333L663.46666667 410.66666667C539.94666667 534.08 412.26666667 661.65333333 283.94666667 789.97333333c-6.4 6.4-15.04 10.02666667-24.10666667 10.02666667z m-98.88-181.33333333l98.88 98.88c120.21333333-120.21333333 239.68-239.57333333 355.41333333-355.2l45.76-45.76c15.25333333-15.25333333 15.25333333-40.21333333 0-55.36L617.38666667 217.6c-7.36-7.36-17.17333333-11.41333333-27.73333334-11.41333333-15.46666667 0-25.81333333 9.49333333-27.73333333 11.41333333L160.96 618.66666667z" fill="#1890ff" p-id="4642"></path><path d="M69.01333333 843.62666667c-8.96 0-17.70666667-3.52-24.10666666-10.02666667-8.64-8.64-11.94666667-21.22666667-8.85333334-32.96l50.77333334-189.33333333c3.2-11.73333333 12.37333333-21.01333333 24.10666666-24.10666667 11.73333333-3.2 24.32 0.21333333 32.96 8.85333333l138.66666667 138.56c8.64 8.64 11.94666667 21.22666667 8.85333333 32.96-3.2 11.73333333-12.37333333 21.01333333-24.10666666 24.10666667L77.86666667 842.45333333c-2.98666667 0.74666667-5.86666667 1.17333333-8.85333334 1.17333334z m68.48-157.54666667L117.33333333 761.17333333l75.2-20.16-55.04-54.93333333z m476.05333334-273.06666667c-8.85333333 0-17.70666667-3.41333333-24.32-10.24L459.84 271.04c-13.22666667-13.44-13.01333333-35.09333333 0.42666667-48.32 13.44-13.22666667 35.09333333-13.01333333 48.32 0.42666667L637.86666667 354.98666667c13.22666667 13.44 13.01333333 35.09333333-0.42666667 48.32-6.61333333 6.4-15.25333333 9.70666667-23.89333333 9.70666666z m336.74666666 420.37333334H394.77333333c-18.88 0-34.13333333-15.25333333-34.13333333-34.13333334s15.25333333-34.13333333 34.13333333-34.13333333h555.52c18.88 0 34.13333333 15.25333333 34.13333334 34.13333333s-15.25333333 34.13333333-34.13333334 34.13333334z m0-145.06666667H605.44c-18.88 0-34.13333333-15.25333333-34.13333333-34.13333333s15.25333333-34.13333333 34.13333333-34.13333334h344.85333333c18.88 0 34.13333333 15.25333333 34.13333334 34.13333334s-15.25333333 34.13333333-34.13333334 34.13333333z m-1.06666666-142.4H739.84c-18.88 0-34.13333333-15.25333333-34.13333333-34.13333333s15.25333333-34.13333333 34.13333333-34.13333334h209.38666667c18.88 0 34.13333333 15.25333333 34.13333333 34.13333334s-15.25333333 34.13333333-34.13333333 34.13333333z" fill="#1890ff" p-id="4643"></path></svg>